<?xml version="1.0" encoding="utf-8"?>
<!-- Generator: Adobe Illustrator 19.0.0, SVG Export Plug-In . SVG Version: 6.00 Build 0)  -->
<svg version="1.1" id="图层_1" xmlns="http://www.w3.org/2000/svg" xmlns:xlink="http://www.w3.org/1999/xlink" x="0px" y="0px"
	 viewBox="0 0 24.1 20.6" style="enable-background:new 0 0 24.1 20.6;" xml:space="preserve">
<style type="text/css">
	.st0{clip-path:url(#SVGID_2_);fill:none;stroke:#999999;stroke-linecap:round;stroke-linejoin:round;stroke-miterlimit:10;}
</style>
<g>
	<defs>
		<rect id="SVGID_1_" width="24.1" height="20.6"/>
	</defs>
	<clipPath id="SVGID_2_">
		<use xlink:href="#SVGID_1_"  style="overflow:visible;"/>
	</clipPath>
	<path class="st0" d="M10.5,20.1h4.3c1.4,0,2.6-1.2,2.6-2.6v-2.6l3,2.5c0.5,0.4,1.4,0.7,2.2,0.3c0.5-0.2,1-0.8,1-2V4.9
		c0-1.3-0.5-1.8-1-2c-0.8-0.4-1.8,0-2.3,0.4l-3,2.4V3.1c0-1.4-1.2-2.6-2.6-2.6H3.1c-1.4,0-2.6,1.2-2.6,2.6v6.8"/>
	<line class="st0" x1="0.5" y1="15.8" x2="8.3" y2="15.8"/>
	<line class="st0" x1="4.4" y1="12" x2="4.4" y2="19.8"/>
</g>
</svg>
