<?xml version="1.0" encoding="utf-8"?>
<!-- Generator: Adobe Illustrator 19.0.0, SVG Export Plug-In . SVG Version: 6.00 Build 0)  -->
<svg version="1.1" id="图层_1" xmlns="http://www.w3.org/2000/svg" xmlns:xlink="http://www.w3.org/1999/xlink" x="0px" y="0px"
	 viewBox="0 0 333.7 312.2" style="enable-background:new 0 0 333.7 312.2;" xml:space="preserve">
<style type="text/css">
	
		.st0{clip-path:url(#SVGID_2_);fill:none;stroke:#999999;stroke-width:18;stroke-linecap:round;stroke-linejoin:round;stroke-miterlimit:10;}
</style>
<g>
	<defs>
		<rect id="SVGID_1_" width="333.7" height="312.2"/>
	</defs>
	<clipPath id="SVGID_2_">
		<use xlink:href="#SVGID_1_"  style="overflow:visible;"/>
	</clipPath>
	<path class="st0" d="M109.4,42.1h147l68.4,69.6v172.6c0,10.4-8.5,18.9-18.9,18.9H109.4c-10.4,0-18.9-8.5-18.9-18.9V61
		C90.5,50.6,99,42.1,109.4,42.1z"/>
	<path class="st0" d="M213.3,40.2V27.9c0-10.4-8.5-18.9-18.9-18.9H27.9C17.5,9,9,17.5,9,27.9v223.2c0,10.4,8.5,18.9,18.9,18.9h62.6"
		/>
	<polyline class="st0" points="320.7,114.8 245.1,114.8 245.1,43.9 	"/>
</g>
</svg>
